<svg width="24" height="20" xmlns="http://www.w3.org/2000/svg"><g fill="#283593"><path d="M9.8 18.12a.31.31 0 010-.2c0-.06 0-.11-.11-.14-.11-.03-.12-.07-.12-.09 0-.02-.06 0-.18 0H4.41a2.35 2.35 0 01-1.73-.72A2.35 2.35 0 012 15.18V4.41a2.35 2.35 0 01.72-1.73A2.35 2.35 0 014.41 2h4.9a.45.45 0 00.31-.1.48.48 0 00.15-.3 2.58 2.58 0 00.05-.36V.53a.45.45 0 00-.17-.38.46.46 0 00-.34-.15h-4.9a4.27 4.27 0 00-3.12 1.29A4.27 4.27 0 000 4.41v10.77a4.25 4.25 0 001.29 3.12 4.27 4.27 0 003.12 1.29h4.9a.45.45 0 00.31-.1.43.43 0 00.15-.3 2.58 2.58 0 00.05-.36v-.4c0-.16-.02-.27-.02-.31z"/><path d="M23.71 9.11L15.38.78a1 1 0 00-1.38 0 .92.92 0 00-.3.69v4.41H6.86a1 1 0 00-1 1v5.87a1 1 0 001 1h6.85v4.41a.92.92 0 00.3.69 1 1 0 001.37 0l8.33-8.33a1 1 0 000-1.37v-.04z"/></g></svg>